PathFileType	4	(X/Y/Z)	52_2_85_p1_0-645_filt_butterworth.trc
DataRate	CameraRate	NumFrames	NumMarkers	Units	OrigDataRate	OrigDataStartFrame	OrigNumFrames
60.0	60.0	6	27	m	60.0	483	645
Frame#	Time	RHip			RKnee			RAnkle			RBigToe			RSmallToe			RHeel			LHip			LKnee			LAnkle			LBigToe			LSmallToe			LHeel			Neck			Head			Nose			RShoulder			RElbow			RWrist			RThumb			RIndex			RPinky			LShoulder			LElbow			LWrist			LThumb			LIndex			LPinky			
		X1	Y1	Z1	X2	Y2	Z2	X3	Y3	Z3	X4	Y4	Z4	X5	Y5	Z5	X6	Y6	Z6	X7	Y7	Z7	X8	Y8	Z8	X9	Y9	Z9	X10	Y10	Z10	X11	Y11	Z11	X12	Y12	Z12	X13	Y13	Z13	X14	Y14	Z14	X15	Y15	Z15	X16	Y16	Z16	X17	Y17	Z17	X18	Y18	Z18	X19	Y19	Z19	X20	Y20	Z20	X21	Y21	Z21	X22	Y22	Z22	X23	Y23	Z23	X24	Y24	Z24	X25	Y25	Z25	X26	Y26	Z26	X27	Y27	Z27	
483	8.05	-0.011008278843482266	0.7021457181928834	0.8045799735996327	-0.012219944575783417	0.3057375641618992	0.6921630974161723	0.00813098236191388	-0.1086427330862542	0.7430715248001349	-0.0033397154187495394	-0.12571494663085092	0.5881385365903243	0.06516085730596123	-0.12326428234835907	0.595184535421935	-0.008933650227372447	-0.2140266446382972	0.8445617941755041	-0.21837131466753262	0.6716656833822213	0.769274213624502	-0.19528648996608206	0.23900759464784826	0.7487024377504614	-0.16797260567076683	-0.15300623730009014	0.7604239897178295	-0.1452120688899651	-0.1315600912992979	0.603703453987181	-0.21008982902834616	-0.14895250166538765	0.6383492864769933	-0.14857394724639011	-0.21083273835656216	0.8098219234663736	-0.18667851398486787	1.1903145141642677	0.7222962673628427	-0.25206121481703203	1.4426693932603796	0.6381579911310695	-0.154605199890725	1.3346069821570503	0.6170493785067401	-0.027165215344824856	1.164083834225397	0.8214243774244154	0.05938147236791674	0.8950593472252818	0.8804001195757895	0.12875386510228298	0.6902060130172092	0.8061012324731988	0.15333668449493587	0.5992958151693886	0.7180709789500606	0.18002622395174586	0.5851107234629978	0.7190025067203214	0.18501513435599848	0.5586747208641325	0.8043728929694823	-0.2963657326157445	1.0845623669779694	0.6978795432134686	-0.3362608544762617	0.8007195916393575	0.7693875639892412	-0.3293982143304888	0.5523540580411028	0.756177852972872	-0.26853607564819065	0.4702164655107146	0.6998916067271007	-0.30736598092046974	0.41885392643042896	0.7372219895924816	-0.3308192221865324	0.42712811064660616	0.7654507634803296	
484	8.066666666666666	-0.011032955459891969	0.7020489563919436	0.8042456694151627	-0.01231526264410894	0.3068649614975687	0.6923664275981644	0.007864433763578371	-0.10825002818565056	0.7430261167001477	-0.0031813801644359893	-0.12697785490423275	0.589847682845414	0.06515182426305674	-0.12298523668814501	0.5953336524602428	-0.008987263230286393	-0.2126517840625855	0.8443655414126625	-0.2184311027076464	0.671687259064679	0.7695456981070238	-0.19523079870686844	0.2397408501140493	0.7488729227652093	-0.16802606865651812	-0.1520927486080346	0.7602975695367636	-0.14428248418542794	-0.13012041361566873	0.6015169945165665	-0.20988981276563057	-0.14980067487789392	0.6395778046638932	-0.14847587102027224	-0.20971788372525185	0.8081659748653146	-0.1867085535832378	1.189110748176741	0.721985724771574	-0.25205344260287	1.4426367900681558	0.6360524243364315	-0.155102108864415	1.3349651764679176	0.6151462436359693	-0.02706607698690966	1.1641209384862674	0.8212189423553633	0.05720149769865851	0.8934417913974715	0.8846355850862149	0.12731918335305678	0.6882777324660393	0.8109771651233771	0.15200833373222172	0.5980906874815015	0.7241235457081054	0.17913190503953208	0.5863450522454728	0.7215688506518833	0.18047801457473278	0.555240958728766	0.8122670974825065	-0.2964539516452909	1.0843131398640264	0.6978112592615627	-0.3368446082288411	0.8002962171164671	0.7692346860672944	-0.3295347222568733	0.5529988168549569	0.7567104300044923	-0.27120805748344845	0.4693737931351607	0.7024945801613933	-0.3092577811825746	0.41825937806261104	0.7376141699159444	-0.3316411031949096	0.42825628750870764	0.7661886526424867	
485	8.083333333333334	-0.011086261795428237	0.7019838427768308	0.8038208914955469	-0.012445340695365806	0.3076807356182737	0.6924340127770044	0.007727731735951163	-0.10789875345780725	0.7430261703104488	-0.002795176032033506	-0.12765267192730026	0.5908092469942635	0.06518239134855515	-0.12253381403798	0.5953849786352385	-0.009041863924748967	-0.2113889013909289	0.8442820536672957	-0.2185177059260565	0.6715755702854069	0.7697641146927485	-0.1951898276299963	0.24015122654648027	0.7489569509898868	-0.16807872917952446	-0.15118823922453462	0.7601822612701401	-0.14399898254466495	-0.12883960697165645	0.5995840685005837	-0.2098603894252402	-0.1500339826903543	0.6398795461753227	-0.14838317062807932	-0.20859278424808897	0.8065392579786962	-0.18657251659821264	1.1881457839816318	0.7217496914030939	-0.2518933244856648	1.4422420057835994	0.6342513695174404	-0.15531773381340205	1.3351074554995255	0.6144160585786447	-0.02692706431444114	1.1644261470903485	0.8210060230534059	0.055065048727597654	0.8921241612577838	0.88859701723549	0.12611220862144631	0.6869244770115319	0.8148797958016749	0.15063084747805888	0.5969619074533612	0.7297350299557657	0.17882674907875926	0.5879740732532995	0.7234584829086299	0.17695679413832688	0.5532419022938968	0.8180706829155826	-0.29646025221448163	1.0835934073563365	0.6978168125668921	-0.3376048187432201	0.7995212226374475	0.7690633337844831	-0.32950130905466	0.5524091008523221	0.7573023137559023	-0.2734730446970237	0.4673435621251859	0.7043460972905273	-0.3106400055142976	0.4179194008697699	0.7373925776083811	-0.33264730795534436	0.4286530431665188	0.7656033227096232	
486	8.1	-0.011173366573216437	0.701874996611507	0.8034733665374472	-0.01259082758793581	0.30827396568051085	0.6922953490383499	0.007680761091709055	-0.10758184221570906	0.7430454569967364	-0.0025120853937646336	-0.12774336691484167	0.5909997390421938	0.06526783682136524	-0.12198366228133599	0.5952297139128243	-0.00904999440926299	-0.21032691823258948	0.8442135491551834	-0.2185486819589649	0.671320277682319	0.769786295275116	-0.19519300747651197	0.24030205133239887	0.7489660612780389	-0.16814091596647404	-0.15037168382377558	0.7600740203392514	-0.14436343246047295	-0.128867371386831	0.5994561036307969	-0.20993386480678694	-0.14987283487633793	0.639601545958631	-0.14829789433824836	-0.20743663374546098	0.8049151097564361	-0.18643743171072452	1.1875357761181822	0.7216212706511189	-0.2516296681975872	1.4414509720087343	0.6331078176796172	-0.15517859087419986	1.3349827539630217	0.6151444282522232	-0.02692252535045303	1.1650168057995933	0.8208430908928777	0.05305438308287497	0.8912387772358694	0.891931745250895	0.12506159241257617	0.6863559263939758	0.81775048700762	0.14985104760664103	0.5961731902394029	0.7335294665856997	0.17945935322364368	0.5897882069199121	0.7245849170215795	0.17562649820347476	0.5525729264350902	0.8224868965744832	-0.29645962050673996	1.0823805919768117	0.6978639781770687	-0.33830901738209146	0.798159193382166	0.7689094885983092	-0.32934544217080886	0.5507939408787105	0.7578206926265049	-0.2751067784476497	0.4645735542978666	0.705196594525035	-0.3115047716258472	0.41785037536239733	0.737046449725156	-0.3335656710276693	0.42842736434391326	0.7638520453637854	
487	8.116666666666667	-0.011302713473393067	0.7016859343334771	0.803355198031328	-0.012690270625184491	0.3087085696464952	0.6919850744534456	0.007667659411968026	-0.10730332459345307	0.7430665412322472	-0.0024435115557024795	-0.12748090131463163	0.590719489445997	0.0653263164216505	-0.12157033236105651	0.5950688020182302	-0.008950894275213662	-0.20942780959445464	0.8439371134278364	-0.21852922241581346	0.6708660976638626	0.7696465193409148	-0.1952756575484701	0.2402543583984406	0.748920498989341	-0.1682248763859023	-0.14972362566684883	0.7599651098005389	-0.1451935896393427	-0.13061171694449264	0.6016595573995135	-0.2100108501343452	-0.14966226635949773	0.6392703136188019	-0.148223106351736	-0.2062363432336986	0.8032555367630595	-0.1863933422506315	1.1872892761508596	0.7215974260948682	-0.251381004555923	1.44024661638191	0.6327034587568554	-0.15474343733989002	1.3346440663393488	0.6170353659042567	-0.027319655889544547	1.1658261008483821	0.8207510342060156	0.05099112255881755	0.8906905576279637	0.8945548167599505	0.12412757496057644	0.6865089910653601	0.8197396423250385	0.15063311375770624	0.595988459660003	0.7348431629673845	0.18138724056620176	0.5913128096098502	0.7261643623826876	0.17703892582438444	0.5530543021178694	0.8261855014655368	-0.29644322721130445	1.080797304157039	0.69775242520844	-0.33875833601520483	0.7961751701107156	0.7687880967117955	-0.3291569124492789	0.5487215964888813	0.7580088054682766	-0.2760633392308976	0.4615057527324693	0.7053087080462026	-0.3120395870381823	0.4179836401799168	0.7369020598842253	-0.33422752662469546	0.4277098025704162	0.7613189345517302	
488	8.133333333333333	-0.011474295893637049	0.7014537516721843	0.8034902627746286	-0.012718102692876265	0.3089697692202248	0.6916481520412514	0.007645198861970581	-0.10707542411279536	0.7430854987044473	-0.0024834992293612324	-0.1271765442036335	0.5903915717313585	0.06520402609396986	-0.12161038867739832	0.5954142368474898	-0.008696988149186562	-0.20859196424774806	0.843237209067309	-0.21854753110365005	0.670152964323317	0.769565929207509	-0.19545061607704178	0.2399775116441586	0.7488296648052033	-0.16833415043556949	-0.14927763252030646	0.7598511529765689	-0.1462968364307118	-0.1331524601493244	0.6049617967585061	-0.21002521750254335	-0.14963689802760083	0.6392313019217222	-0.1481595325864053	-0.20500708710339974	0.8015649340887799	-0.18642694123688652	1.1872700085983936	0.7216297723804386	-0.25124024246525256	1.4386290576728467	0.6327602497794506	-0.15415026071690263	1.33420375866698	0.6194603708865866	-0.02834774466851009	1.1666920921912753	0.8207335058663705	0.0485693674130066	0.8903848480004363	0.8963971634445651	0.12342168845308349	0.6874117979266581	0.8211609183257457	0.15399515330043925	0.5965206451406545	0.7346197648519444	0.18496774551775422	0.5919762900217899	0.7302166472293762	0.1808651647383058	0.5541454025130755	0.8303104201508222	-0.29629361286765815	1.0791703081710402	0.6971736052110987	-0.3389035548393949	0.7938581545282961	0.7685638930649759	-0.32904534115414585	0.5468771577424232	0.7575176400080043	-0.27631311781467893	0.4586392274271308	0.7048929150607026	-0.3124073554397887	0.4182209557091139	0.7368095391250293	-0.3346583290378742	0.426704715066349	0.7584110703086426	
